<svg xmlns="http://www.w3.org/2000/svg" width="45" height="40.5" viewBox="0 0 45 40.5">
    <g id="calculator" transform="translate(-1.5 -3.75)">
        <path id="Path_1572" data-name="Path 1572"
            d="M44.25,3.75H3.75A2.253,2.253,0,0,0,1.5,6V42a2.253,2.253,0,0,0,2.25,2.25h40.5A2.253,2.253,0,0,0,46.5,42V6a2.253,2.253,0,0,0-2.25-2.25Zm-.75,37.5H4.5V6.75h39Z"
            fill="#354e37" />
        <path id="Path_1573" data-name="Path 1573"
            d="M14.25,22.5h3V18.75H21v-3H17.25V12h-3v3.75H10.5v3h3.75Z" fill="#354e37" />
        <path id="Path_1574" data-name="Path 1574"
            d="M18.4,26.727,15.75,29.379,13.1,26.727l-2.121,2.121L13.629,31.5l-2.652,2.652L13.1,36.273l2.652-2.652L18.4,36.273l2.121-2.121L17.871,31.5l2.652-2.652Z"
            fill="#354e37" />
        <path id="Path_1575" data-name="Path 1575" d="M27,15.75H37.5v3H27Z" fill="#354e37" />
        <path id="Path_1576" data-name="Path 1576" d="M27,27H37.5v3H27Z" fill="#354e37" />
        <path id="Path_1577" data-name="Path 1577" d="M27,33H37.5v3H27Z" fill="#354e37" />
    </g>
</svg>
  
