<svg xmlns="http://www.w3.org/2000/svg" width="40" height="42" viewBox="0 0 40 42">
    <g id="list" transform="translate(-3.75 -3)">
        <path id="Path_1584" data-name="Path 1584" d="M19.5,7.5H44.25v3H19.5Z"
            transform="translate(-0.5)" fill="#354e37" />
        <path id="Path_1585" data-name="Path 1585"
            d="M3.75,9a6,6,0,1,0,6-6,6,6,0,0,0-6,6Zm6-3a3,3,0,1,1-3,3,3,3,0,0,1,3-3Z" fill="#354e37" />
        <path id="Path_1586" data-name="Path 1586" d="M19.5,22.5H44.25v3H19.5Z"
            transform="translate(-0.5)" fill="#354e37" />
        <path id="Path_1587" data-name="Path 1587"
            d="M9.75,30a6,6,0,1,0-6-6,6,6,0,0,0,6,6Zm0-9a3,3,0,1,1-3,3,3,3,0,0,1,3-3Z"
            fill="#354e37" />
        <path id="Path_1588" data-name="Path 1588" d="M19.5,37.5H44.25v3H19.5Z"
            transform="translate(-0.5)" fill="#354e37" />
        <path id="Path_1589" data-name="Path 1589"
            d="M9.75,45a6,6,0,1,0-6-6,6,6,0,0,0,6,6Zm0-9a3,3,0,1,1-3,3,3,3,0,0,1,3-3Z"
            fill="#354e37" />
    </g>
</svg>
  
