<svg xmlns="http://www.w3.org/2000/svg" width="42" height="48" viewBox="0 0 42 48">
    <g id="_3d" data-name="3d" transform="translate(-4.967 -2.452)">
        <path id="Path_1578" data-name="Path 1578"
            d="M6.619,39.676l17.7,10.33a3.282,3.282,0,0,0,3.3,0l17.7-10.33a3.358,3.358,0,0,0,1.652-2.894V16.122a3.358,3.358,0,0,0-1.652-2.894L27.619,2.9a3.282,3.282,0,0,0-3.3,0l-17.7,10.33a3.358,3.358,0,0,0-1.652,2.894v20.66A3.358,3.358,0,0,0,6.619,39.676Zm21-32.919,16.043,9.365V34.644L27.619,25.475ZM25.962,28.366l16.229,9.275L25.967,47.112,9.738,37.638ZM8.272,16.122,24.315,6.757V25.468L8.272,34.637Z"
            transform="translate(0 0)" fill="#354e37" />
    </g>
</svg>
  
