<svg id="Decorative_icon" data-name="Decorative icon" xmlns="http://www.w3.org/2000/svg" width="18" height="18" viewBox="0 0 18 18">
  <rect id="Placement_Area" data-name="Placement Area" width="18" height="18" fill="#354e37" opacity="0"/>
  <g id="Icon">
    <rect id="Canvas" width="18" height="18" fill="#354e37" opacity="0"/>
    <path id="Path_1339" data-name="Path 1339" d="M16,2.5a.534.534,0,0,0-.563-.5H.563A.534.534,0,0,0,0,2.5v11a.534.534,0,0,0,.563.5H1V3H16Z" fill="#354e37"/>
    <path id="Path_1340" data-name="Path 1340" d="M17.5,4H2.5a.5.5,0,0,0-.5.5v11a.5.5,0,0,0,.5.5h15a.5.5,0,0,0,.5-.5V4.5A.5.5,0,0,0,17.5,4ZM17,13.686,14.364,11.05a1,1,0,0,0-1.414,0l-1.536,1.536L7.636,8.807a1,1,0,0,0-1.414,0L3,12.03V5H17Z" fill="#354e37"/>
    <circle id="Ellipse_274" data-name="Ellipse 274" cx="1.25" cy="1.25" r="1.25" transform="translate(13.25 6.25)" fill="#354e37"/>
  </g>
</svg>
