<svg xmlns="http://www.w3.org/2000/svg" width="51" height="51" viewBox="0 0 51 51">
  <g id="wrench" transform="translate(0.996 2)">
    <g id="Rectangle_738" data-name="Rectangle 738" transform="translate(-0.996 -2)" fill="rgba(255,255,255,0)" stroke="#354e37" stroke-width="0.5">
      <path d="M10,0H51a0,0,0,0,1,0,0V41A10,10,0,0,1,41,51H0a0,0,0,0,1,0,0V10A10,10,0,0,1,10,0Z" stroke="none"/>
      <path d="M10,.25H50.75a0,0,0,0,1,0,0V41A9.75,9.75,0,0,1,41,50.75H.25a0,0,0,0,1,0,0V10A9.75,9.75,0,0,1,10,.25Z" fill="none"/>
    </g>
    <g id="Decorative_icon" data-name="Decorative icon" transform="translate(8.004 7)">
      <rect id="Placement_Area" data-name="Placement Area" width="38" height="38" fill="red" opacity="0"/>
      <g id="Icon" transform="translate(-4.133 -4.133)">
        <rect id="Canvas" width="40" height="40" transform="translate(0.133 0.133)" fill="#354e37" opacity="0"/>
        <path id="Path_1910" data-name="Path 1910" d="M32.111,10.143a9.82,9.82,0,0,0-19.019-3.4A8.63,8.63,0,0,0,4.5,15.013a5.838,5.838,0,0,0-3.962,6.2A5.974,5.974,0,0,0,6.546,26.38h5.688a.559.559,0,0,0,.559-.559V24.7a.559.559,0,0,0-.559-.559h-5.7a3.728,3.728,0,0,1-3.79-3.4,3.592,3.592,0,0,1,3.392-3.781q.1-.005.194-.005h.4v-1.6A6.391,6.391,0,0,1,14.779,9.2a7.585,7.585,0,1,1,14.827,3.017,5.987,5.987,0,1,1,.671,11.935H26.762a.559.559,0,0,0-.559.559v1.118a.559.559,0,0,0,.559.559H30a8.4,8.4,0,0,0,8.434-7.246,8.234,8.234,0,0,0-6.326-8.995Z" transform="translate(0.635 0.458)" fill="#354e37"/>
        <path id="Path_1911" data-name="Path 1911" d="M7.059,12.7H9.853V29.466a1.118,1.118,0,0,0,1.118,1.118h2.235a1.118,1.118,0,0,0,1.118-1.118V12.7h2.794a.559.559,0,0,0,.559-.559.547.547,0,0,0-.131-.354l-5.05-5.613a.559.559,0,0,0-.79-.024l-.024.024-5.05,5.61a.547.547,0,0,0-.131.358A.559.559,0,0,0,7.059,12.7Z" transform="translate(8.045 7.429)" fill="#354e37"/>
      </g>
    </g>
  </g>
</svg>
