<svg id="note-edit-line" xmlns="http://www.w3.org/2000/svg" width="20.002" height="20.002"
    viewBox="0 0 20.002 20.002">
    <path id="Path_977" data-name="Path 977"
        d="M18.667,20H4V5.333h8.813L14.147,4H4A1.333,1.333,0,0,0,2.667,5.333V20A1.333,1.333,0,0,0,4,21.333H18.667A1.333,1.333,0,0,0,20,20V10l-1.333,1.333Z"
        transform="translate(-2.667 -1.331)" fill="#354e37" />
    <path id="Path_978" data-name="Path 978"
        d="M22.353,3.893,20.107,1.647a1.073,1.073,0,0,0-1.52,0L9.447,10.84l-.74,3.207a1.073,1.073,0,0,0,1.047,1.287,1.127,1.127,0,0,0,.247,0l3.233-.713,9.12-9.207a1.073,1.073,0,0,0,0-1.52ZM12.54,13.387l-2.44.54.567-2.42,6.88-6.927,1.88,1.88Zm7.64-7.68L18.3,3.827l1.033-1.053,1.893,1.893Z"
        transform="translate(-2.667 -1.331)" fill="#354e37" />
</svg>