<svg id="photo-size-select-large" xmlns="http://www.w3.org/2000/svg" width="23.849" height="19.526"
    viewBox="0 0 23.849 19.526">
    <path id="Path_974" data-name="Path 974"
        d="M21.713,13.018h2.136V15.2H21.713Zm0-4.322h2.136v2.136H21.713Zm2.136,8.644a2.126,2.126,0,0,1-.661,1.5,2.008,2.008,0,0,1-1.475.686V17.34ZM13.018,0H15.2V2.187H13.018Zm8.7,4.322h2.136V6.509H21.713Zm0-4.322a2.008,2.008,0,0,1,1.475.686,2.126,2.126,0,0,1,.661,1.5H21.713ZM0,4.322H2.187V6.509H0ZM17.34,0h2.187V2.187H17.34Zm0,17.34h2.187v2.187H17.34ZM2.187,0V2.187H0A2.089,2.089,0,0,1,.686.686,2.089,2.089,0,0,1,2.187,0ZM8.7,0h2.136V2.187H8.7ZM4.322,0H6.509V2.187H4.322ZM0,8.7H15.2V19.526H2.187a2.11,2.11,0,0,1-1.551-.636A2.11,2.11,0,0,1,0,17.34ZM2.187,17.34H13.018L9.56,12.712,6.814,16.221,4.882,13.882Z"
        fill="#354e37" />
</svg>