<svg xmlns="http://www.w3.org/2000/svg" width="19.5" height="19.5" viewBox="0 0 19.5 19.5">
    <g id="Decorative_icon" data-name="Decorative icon" transform="translate(0.75 0.75)">
      <rect id="Placement_Area" data-name="Placement Area" width="18" height="18" fill="none" stroke="#354e37" stroke-width="1.5" opacity="0"/>
      <g id="Icon">
        <rect id="Canvas" width="18" height="18" fill="none" stroke="#354e37" stroke-width="1.5" opacity="0"/>
        <path id="Path_314" data-name="Path 314" d="M5.657,13.981a.109.109,0,0,0-.028-.112.1.1,0,0,0-.111-.022c-.36.144-.908.307-1.145.066-.747-.763.729-3.881,3.183-6.383S13.1,3.622,13.813,4.35a.552.552,0,0,1,.124.505.111.111,0,0,0,.034.1.106.106,0,0,0,.1.023,4.368,4.368,0,0,1,.733-.163.209.209,0,0,0,.18-.19,1.14,1.14,0,0,0-.245-.947l-.01-.006A7.717,7.717,0,0,0,3.686,3.1,8.085,8.085,0,0,0,3.12,14.36q.2.223.411.43a.386.386,0,0,0,.061.05,1.028,1.028,0,0,0,.756.271,3.134,3.134,0,0,0,.988-.2.227.227,0,0,0,.147-.181,5.808,5.808,0,0,1,.175-.748Z" transform="translate(0.24)" fill="none" stroke="#354e37" stroke-width="1.5"/>
        <path id="Path_315" data-name="Path 315" d="M16.555,7.365c-.144-.885-.46-1.479-1.23-1.479-1.319,0-3.436,1.359-5.394,3.464-2.323,2.5-3.661,5.2-3.255,6.572a1.349,1.349,0,0,0,1.205.944,6.941,6.941,0,0,0,1.087.086,7.263,7.263,0,0,0,5.394-2.372,8.079,8.079,0,0,0,2.193-7.214Z" transform="translate(0.134)" fill="none" stroke="#354e37" stroke-width="1.5"/>
      </g>
    </g>
  </svg>
  