<svg id="select-02" xmlns="http://www.w3.org/2000/svg" width="21" height="21" viewBox="0 0 21 21">
    <path id="Path_975" data-name="Path 975" d="M9,4.5H6v-3H4.5v3h-3V6h3V9H6V6H9Z"
        transform="translate(-1.5 -1.5)" fill="#354e37" />
    <path id="Path_976" data-name="Path 976"
        d="M22.5,7.5V3H18V4.5H12V6h6V7.5h1.5V18H18v1.5H7.5V18H6V12H4.5v6H3v4.5H7.5V21H18v1.5h4.5V18H21V7.5ZM6,21H4.5V19.5H6Zm15,0H19.5V19.5H21ZM19.5,4.5H21V6H19.5Z"
        transform="translate(-1.5 -1.5)" fill="#354e37" />
</svg>