<svg id="Group_925" data-name="Group 925" xmlns="http://www.w3.org/2000/svg" width="24" height="20.868" viewBox="0 0 24 20.868">
  <path id="Path_979" data-name="Path 979" d="M12.352,2.345a.707.707,0,0,0-.7,0L.4,8.766a.83.83,0,0,0,0,1.416l4.385,2.5L.4,15.187A.83.83,0,0,0,.4,16.6l11.25,6.421a.707.707,0,0,0,.7,0L23.6,16.6a.83.83,0,0,0,0-1.416l-4.382-2.5,4.383-2.5a.83.83,0,0,0,0-1.416Zm5.273,11.25,4.032,2.3L12,21.406,2.343,15.9l4.032-2.3L11.648,16.6a.707.707,0,0,0,.7,0l5.273-3.008ZM12,14.985,2.343,9.474,12,3.963l9.657,5.511Z" transform="translate(0.001 -2.251)" fill="#354e37"/>
</svg>
