<svg id="Group_177" data-name="Group 177" xmlns="http://www.w3.org/2000/svg" width="21.101"
    height="21" viewBox="0 0 21.101 21">
    <path id="Path_171" data-name="Path 171"
        d="M10.8,1.6a.659.659,0,0,0-.491,0L2.435,4.745l8.116,3.246,8.116-3.246ZM19.783,5.72,11.21,9.149V19.6l8.572-3.429V5.721ZM9.891,19.6V9.147L1.319,5.72V16.169L9.891,19.6ZM9.816.372a1.978,1.978,0,0,1,1.469,0l9.4,3.761a.659.659,0,0,1,.414.612V16.169a1.319,1.319,0,0,1-.83,1.224L10.8,21.183a.659.659,0,0,1-.491,0L.831,17.393A1.319,1.319,0,0,1,0,16.169V4.745a.659.659,0,0,1,.414-.612Z"
        transform="translate(0 -0.23)" fill="#354e37" />
</svg>