<svg id="ruler-alt" xmlns="http://www.w3.org/2000/svg" width="21" height="21" viewBox="0 0 21 21">
  <rect id="Rectangle_526" data-name="Rectangle 526" width="21" height="21" fill="none"/>
  <path id="Path_973" data-name="Path 973" d="M19.12,14.145,6.862,1.872a1.285,1.285,0,0,0-1.819,0L1.88,5.042a1.286,1.286,0,0,0,0,1.813L14.138,19.127a1.3,1.3,0,0,0,1.819,0l3.163-3.169A1.286,1.286,0,0,0,19.12,14.145Zm-4.069,4.069L2.786,5.948,5.949,2.785,8.385,5.222,6.939,6.642l.906.906L9.292,6.128l2.655,2.655L10.5,10.23l.913.913L12.859,9.7l2.655,2.655L14.067,13.8,15,14.7l1.446-1.446,1.768,1.794Z" transform="translate(0.494 -0.495)" fill="#354e37"/>
</svg>
