<svg xmlns="http://www.w3.org/2000/svg" width="36" height="36.218" viewBox="0 0 36 36.218">
    <path id="Path_1597" data-name="Path 1597"
        d="M35.4,2H4.722A2.626,2.626,0,0,0,2.06,4.59V35.628a2.626,2.626,0,0,0,2.662,2.59H35.4a2.626,2.626,0,0,0,2.662-2.59V4.59A2.626,2.626,0,0,0,35.4,2ZM12.98,32.314H7.547v-16.3H12.98ZM10.263,13.735h0a2.825,2.825,0,1,1,0-5.65,2.843,2.843,0,1,1,0,5.65Zm22.31,18.579H27.14V23.568c0-2.191-.779-3.622-2.753-3.622A2.988,2.988,0,0,0,21.6,21.92a3.622,3.622,0,0,0-.181,1.322V32.3H15.986V16h5.433v2.3a5.433,5.433,0,0,1,4.907-2.716c3.622,0,6.247,2.336,6.247,7.352Z"
        transform="translate(-2.06 -2)" fill="currentColor" />
</svg>
  
