<svg xmlns="http://www.w3.org/2000/svg" width="36" height="36" viewBox="0 0 36 36">
    <g id="Group_1342" data-name="Group 1342" transform="translate(-26 -26)">
        <path id="Path_1595" data-name="Path 1595"
            d="M62,54.69A7.331,7.331,0,0,1,54.69,62H33.31A7.331,7.331,0,0,1,26,54.69V33.31A7.331,7.331,0,0,1,33.31,26H54.69A7.331,7.331,0,0,1,62,33.31Z"
            fill="currentColor" />
        <path id="Path_1596" data-name="Path 1596"
            d="M89.859,104.71l8.049-9.556H95.576l-6.883,8.172L81.81,95.154H74.125L84.85,107.888,76.8,117.444h2.331l6.883-8.173,6.884,8.173h7.685ZM77.915,96.886h3.022l15.857,18.826H93.772Z"
            transform="translate(-43.354 -62.299)" fill="#f0f0f1" />
    </g>
</svg>
  
